<?xml version="1.0" encoding="UTF-8" standalone="no"?>
<svg
   xmlns:dc="http://purl.org/dc/elements/1.1/"
   xmlns:cc="http://creativecommons.org/ns#"
   xmlns:rdf="http://www.w3.org/1999/02/22-rdf-syntax-ns#"
   xmlns:svg="http://www.w3.org/2000/svg"
   xmlns="http://www.w3.org/2000/svg"
   xmlns:sodipodi="http://sodipodi.sourceforge.net/DTD/sodipodi-0.dtd"
   xmlns:inkscape="http://www.inkscape.org/namespaces/inkscape"
   inkscape:version="1.0 (4035a4fb49, 2020-05-01)"
   sodipodi:docname="delete.svg"
   id="svg12"
   class=""
   xml:space="preserve"
   style="enable-background:new 0 0 512 512"
   viewBox="0 0 512 512"
   y="0"
   x="0"
   height="512"
   width="512"
   version="1.1"><metadata
     id="metadata18"><rdf:RDF><cc:Work
         rdf:about=""><dc:format>image/svg+xml</dc:format><dc:type
           rdf:resource="http://purl.org/dc/dcmitype/StillImage" /></cc:Work></rdf:RDF></metadata><defs
     id="defs16" /><sodipodi:namedview
     inkscape:current-layer="g10"
     inkscape:window-maximized="1"
     inkscape:window-y="-8"
     inkscape:window-x="-8"
     inkscape:cy="283.8856"
     inkscape:cx="392.90488"
     inkscape:zoom="0.79825726"
     showgrid="false"
     id="namedview14"
     inkscape:window-height="745"
     inkscape:window-width="1304"
     inkscape:pageshadow="2"
     inkscape:pageopacity="0"
     guidetolerance="10"
     gridtolerance="10"
     objecttolerance="10"
     borderopacity="1"
     bordercolor="#666666"
     pagecolor="#ffffff" /><g
     transform="translate(39.073083,0.88658563)"
     id="g10"><path
       id="path2"
       class=""
       data-original="#000000"
       fill="#ff0000"
       d="M 424.71598,114.44141 413.41129,80.554688 C 409.1066,67.648438 397.07145,58.976562 383.46989,58.976562 H 288.45817 V 28.042969 C 288.45817,12.582031 275.88786,0 260.43082,0 H 173.42301 C 157.96989,0 145.39567,12.582031 145.39567,28.042969 V 58.976562 H 50.387853 c -13.605469,0 -25.640625,8.671876 -29.945313,21.578126 L 9.1378534,114.44141 c -2.574219,7.71484 -1.269531,16.25781 3.4843746,22.85546 4.753906,6.59766 12.445312,10.53907 20.578125,10.53907 H 45.016759 L 71.024572,469.44141 C 72.958166,493.30469 93.208166,512 117.13395,512 h 204.86328 c 23.92188,0 44.17578,-18.69531 46.10547,-42.5625 l 26.00781,-321.60156 h 6.54297 c 8.13281,0 15.82422,-3.94141 20.57813,-10.53516 4.7539,-6.59766 6.05859,-15.14453 3.48437,-22.85937 z M 175.39567,30 h 83.0625 v 28.976562 h -83.0625 z M 338.20035,467.01953 C 337.52067,475.42187 330.40348,482 321.99723,482 H 117.13395 c -8.40625,0 -15.52344,-6.57813 -16.20313,-14.98047 L 75.114416,147.83594 H 364.01285 Z M 39.633947,117.83594 48.903478,90.046875 c 0.210938,-0.640625 0.808594,-1.070313 1.484375,-1.070313 H 383.46989 c 0.67578,0 1.26953,0.429688 1.48437,1.070313 l 9.26953,27.789065 z m 0,0" /><path
       id="path4"
       class=""
       data-original="#000000"
       fill="#ff0000"
       d="m 282.51562,465.95703 c 0.26563,0.0156 0.52735,0.0195 0.79297,0.0195 7.92578,0 14.55078,-6.21094 14.96485,-14.21875 l 14.08594,-270.39844 c 0.42968,-8.27343 -5.92969,-15.33203 -14.19922,-15.76171 -8.29297,-0.44141 -15.32813,5.92578 -15.76172,14.19921 l -14.08203,270.39844 c -0.42969,8.27344 5.92578,15.33203 14.19921,15.76172 z m 0,0" /><path
       id="path6"
       class=""
       data-original="#000000"
       fill="#ff0000"
       d="m 120.56641,451.79297 c 0.4375,7.99609 7.05468,14.18359 14.96484,14.18359 0.27344,0 0.55469,-0.008 0.83203,-0.0234 8.26953,-0.44921 14.60938,-7.51953 14.16016,-15.79296 L 135.76953,179.76172 c -0.44922,-8.27344 -7.51953,-14.61328 -15.79297,-14.16016 -8.26953,0.44922 -14.60937,7.51953 -14.16015,15.79297 z m 0,0" /><path
       id="path8"
       class=""
       data-original="#000000"
       fill="#ff0000"
       d="m 209.25391,465.97656 c 8.28515,0 15,-6.71484 15,-15 V 180.57812 c 0,-8.28515 -6.71485,-15 -15,-15 -8.28516,0 -15,6.71485 -15,15 v 270.39844 c 0,8.28516 6.71484,15 15,15 z m 0,0" /></g></svg>
