<?xml version="1.0"?>
<svg xmlns="http://www.w3.org/2000/svg" viewBox="0 0 192 192" width="512" height="512"><g id="_06-speed" data-name="06-speed"><path d="M96,0A96.014,96.014,0,0,0,15.53,148.369a8,8,0,0,0,6.7,3.631H169.769a8,8,0,0,0,6.7-3.631A96.014,96.014,0,0,0,96,0Zm69.3,136H26.7a79.543,79.543,0,0,1-10.3-32H32V88H16.4a79.344,79.344,0,0,1,6.687-24.858l13.486,7.786,8-13.856L31.108,49.3A80.66,80.66,0,0,1,49.3,31.108l7.775,13.466,13.856-8L63.142,23.088A79.344,79.344,0,0,1,88,16.4V32h16V16.4a79.344,79.344,0,0,1,24.858,6.687l-7.786,13.486,13.856,8L142.7,31.108A80.66,80.66,0,0,1,160.892,49.3l-13.466,7.775,8,13.856,13.486-7.786A79.344,79.344,0,0,1,175.6,88H160v16h15.6A79.543,79.543,0,0,1,165.3,136Z"/><path d="M113.14,59.884l-12.356,20.6A24.04,24.04,0,1,0,114.5,88.724L126.86,68.116ZM96,112a8,8,0,1,1,8-8A8.009,8.009,0,0,1,96,112Z"/></g></svg>
