<?xml version="1.0" encoding="UTF-8" standalone="no"?>
<!-- Created with Inkscape (http://www.inkscape.org/) -->

<svg
   xmlns:dc="http://purl.org/dc/elements/1.1/"
   xmlns:cc="http://creativecommons.org/ns#"
   xmlns:rdf="http://www.w3.org/1999/02/22-rdf-syntax-ns#"
   xmlns:svg="http://www.w3.org/2000/svg"
   xmlns="http://www.w3.org/2000/svg"
   xmlns:sodipodi="http://sodipodi.sourceforge.net/DTD/sodipodi-0.dtd"
   xmlns:inkscape="http://www.inkscape.org/namespaces/inkscape"
   width="750"
   height="230"
   viewBox="0 0 198.4375 60.85417"
   version="1.1"
   id="svg8"
   inkscape:version="0.92.4 (5da689c313, 2019-01-14)"
   sodipodi:docname="logo-site.svg">
  <defs
     id="defs2" />
  <sodipodi:namedview
     id="base"
     pagecolor="#ffffff"
     bordercolor="#666666"
     borderopacity="1.0"
     inkscape:pageopacity="0.0"
     inkscape:pageshadow="2"
     inkscape:zoom="0.35"
     inkscape:cx="246.86419"
     inkscape:cy="263.49563"
     inkscape:document-units="mm"
     inkscape:current-layer="layer2"
     showgrid="false"
     inkscape:window-width="1360"
     inkscape:window-height="705"
     inkscape:window-x="-8"
     inkscape:window-y="-8"
     inkscape:window-maximized="1"
     showguides="true"
     inkscape:guide-bbox="true"
     units="px" />
  <metadata
     id="metadata5">
    <rdf:RDF>
      <cc:Work
         rdf:about="">
        <dc:format>image/svg+xml</dc:format>
        <dc:type
           rdf:resource="http://purl.org/dc/dcmitype/StillImage" />
        <dc:title></dc:title>
      </cc:Work>
    </rdf:RDF>
  </metadata>
  <g
     inkscape:groupmode="layer"
     id="layer2"
     inkscape:label="draw"
     transform="translate(0,-236.1458)">
    <g
       id="g853"
       transform="translate(-38.376627,59.961818)">
      <g
         id="g844">
        <g
           id="g946"
           transform="translate(-40.347924,101.21889)">
          <circle
             r="22.91836"
             cy="112.24993"
             cx="101.89651"
             id="path861"
             style="opacity:1;fill:#ff2900;fill-opacity:1;stroke:none;stroke-width:0.0995437;stroke-linecap:round;stroke-linejoin:round;stroke-miterlimit:4;stroke-dasharray:none;stroke-dashoffset:0;stroke-opacity:1;paint-order:stroke markers fill" />
          <path
             inkscape:connector-curvature="0"
             id="path861-8"
             transform="scale(0.26458333)"
             d="m 389.66602,343.42773 a 81.328774,81.328774 0 0 0 -81.32813,81.33008 81.328774,81.328774 0 0 0 81.32813,81.32813 81.328774,81.328774 0 0 0 25.46679,-4.19727 81.331809,78.553897 0 0 1 -15.11328,1.42188 81.331809,78.553897 0 0 1 -81.33008,-78.55274 81.331809,78.553897 0 0 1 81.33008,-78.55469 81.331809,78.553897 0 0 1 15.26758,1.43555 81.328774,81.328774 0 0 0 -25.62109,-4.21094 z"
             style="opacity:1;fill:#f9f9f9;fill-opacity:1;stroke:none;stroke-width:0.35324368;stroke-linecap:round;stroke-linejoin:round;stroke-miterlimit:4;stroke-dasharray:none;stroke-dashoffset:0;stroke-opacity:1;paint-order:stroke markers fill" />
        </g>
        <path
           inkscape:connector-curvature="0"
           style="fill:#f9f9f9;stroke:none;stroke-width:0.26458332px;stroke-linecap:butt;stroke-linejoin:miter;stroke-opacity:1"
           d="m 65.814587,176.83495 c -0.0456,0.29475 -0.135041,0.57466 -0.0016,0.92914 l -0.02066,9.24853 c -0.039,0.15426 -0.07913,0.43493 -0.0011,0.53123 l 1.737363,-0.22479 c 0.03116,-0.13628 0.06027,-0.27258 -0.0011,-0.42426 l -0.01291,-8.59896 c 0.0603,-0.11119 0.02787,-0.22264 -0.0041,-0.33383 -0.567952,-0.3675 -1.695506,-1.12706 -1.695506,-1.12706 z m 11.754321,5.38261 c -0.11253,0.0344 -0.204452,0.0824 -0.269751,0.14831 l -2.40502,1.3224 c -0.24479,0.0389 -0.396359,0.21808 -0.396359,0.21808 l 1.252119,1.07487 c 0,0 0.233939,-0.0556 0.314711,-0.24598 l 2.012797,-1.58698 c 0.0853,-0.0172 0.177318,-0.0788 0.223758,-0.1633 -0.26974,-0.24738 -0.553204,-0.48979 -0.732255,-0.7674 z m -4.595069,2.55127 c -0.121746,0.0775 -0.215731,0.18241 -0.258898,0.33848 l -1.724443,2.25154 c -0.164642,0.10683 -0.22167,0.24964 -0.296106,0.38654 l 1.535306,0.72037 c 0,0 0.269039,-0.15321 0.307993,-0.42065 l 1.650027,-2.25257 c 0.172775,-0.12058 0.195514,-0.17394 0.239262,-0.32711 z m -10.172505,1.40508 c -0.384201,1.46998 1.052222,2.60608 2.071191,3.4246 1.018971,0.81851 1.687237,0.10025 1.687237,0.10025 0,0 0.451138,-0.85219 -0.217043,-1.00252 -0.668168,-0.15034 -3.541385,-2.52233 -3.541385,-2.52233 z m 6.440435,3.96927 c -0.16265,0.0228 -0.408535,0.15669 -0.483177,0.55448 l -4.9506,5.68183 c -0.23481,0.0669 -0.422585,0.20792 -0.496094,0.49609 0,0 0.401752,1.21676 1.842781,1.51205 0,0 0.353605,-0.12286 0.401526,-0.49609 l 4.782138,-6.72414 c 0.371639,-0.1878 0.355584,-0.49793 0.361733,-0.75292 -0.620171,-0.0906 -1.037709,-0.18075 -1.458307,-0.2713 z m -7.759734,9.15758 c -0.02127,-0.003 -0.04184,-0.003 -0.0615,5.3e-4 -0.10483,0.0196 -0.187513,0.14366 -0.258381,0.43304 l -0.401527,1.6769 -4.89014,6.96909 -0.684712,0.25993 c -0.330738,0.40947 -0.346769,0.88201 -0.04754,1.41749 0,0 1.110451,0.11815 1.346686,0.49609 0.236236,0.37797 0.496094,1.03943 0.826823,1.15755 0.330729,0.11812 1.630024,0.42487 1.984375,0.0233 0.354354,-0.4016 0.141444,-3.37787 0.448551,-3.75585 0.307113,-0.37797 4.323252,-5.74073 4.323252,-5.74073 0,0 1.157401,-0.25979 1.133779,-0.73226 -0.0236,-0.47247 -0.637683,-0.96834 -1.960602,-1.20457 -0.93018,-0.16611 -1.439847,-0.95133 -1.759066,-1.00046 z m 13.676166,1.00975 c -0.433223,-0.006 -0.832821,0.47357 -1.315164,0.86404 -0.70158,0.56794 -1.570447,1.40301 -1.570447,1.40301 1.060262,0.58883 4.217804,-1.08145 3.508314,-1.90428 -0.221716,-0.25713 -0.425781,-0.36008 -0.622703,-0.36277 z m -1.782317,3.53416 c -0.283491,0 -9.236943,3.00011 -9.780284,3.21272 -0.54334,0.21261 -1.582629,0.3545 -2.125966,0.3545 -0.543341,0 -0.709002,0.0708 -0.709002,0.0708 -0.472471,0.37798 0.188794,1.13407 0.141592,1.67741 -0.04725,0.54334 0.709012,0.4721 1.039731,0.35399 0.330731,-0.11812 0.448847,-0.80306 0.992187,-0.96842 0.543351,-0.16536 6.283857,-2.10249 7.441406,-2.48047 1.15755,-0.37797 3.543679,-0.73232 3.827158,-0.82682 0.28348,-0.0945 -0.21301,-0.61436 -0.14211,-0.85059 0.07087,-0.23623 -0.401233,-0.54312 -0.684712,-0.54312 z m -0.942579,2.73781 c -1.854345,0.007 -3.961601,0.82356 -4.746482,1.15652 -0.454157,0.051 -0.932375,0.11749 -1.460891,0.21756 0,0 2.08552,1.01729 2.839619,1.50327 0.7541,0.48598 2.238179,1.50352 3.207039,0.50126 0.490484,-0.63581 0.32672,-1.48843 -0.83044,-1.96267 3.550155,-0.06 3.327445,-0.6811 3.327445,-0.6811 -0.584682,-0.54482 -1.427163,-0.73812 -2.33629,-0.73484 z m -18.112073,4.41369 c -0.193685,0.01 -0.408619,0.0587 -0.647506,0.14831 -1.299292,0.49609 -0.425371,3.96837 -1.512052,6.47247 -0.401598,1.46466 -2.740472,8.3628 -3.496429,9.85108 -0.755949,1.48829 -2.291112,1.819 -2.503723,2.64583 -0.212611,0.82682 1.347131,0.88382 1.914097,2.23036 0.566962,1.34654 1.456287,2.29438 2.243272,2.06912 0.672256,-0.24197 0.691809,-6.82874 1.672251,-8.65683 0.677045,-1.26239 4.658998,-10.10023 4.80074,-10.36009 0.14174,-0.25986 0.850445,-0.80299 0.992188,-1.36995 0.14174,-0.56697 -0.590587,-0.73225 -0.992188,-0.73225 -0.4016,0 -0.968711,-1.03944 -1.346689,-1.65365 -0.236233,-0.38389 -0.537326,-0.60637 -0.937408,-0.6413 -0.06001,-0.005 -0.121992,-0.006 -0.186553,-0.003 z m 42.111123,1.21129 -16.263088,12.87157 H 62.65044 c 0,10.04566 6.095235,10.88667 6.095235,10.88667 0,0 7.606631,0.14883 13.040029,0.14883 5.43341,0 6.520016,-11.0355 6.520016,-11.0355 h -2.440678 l 11.937257,-4.8395 -0.613916,-1.32292 -13.825513,6.16242 h -1.431954 l 15.446086,-11.64322 z"
           id="path829" />
        <g
           id="g836"
           transform="translate(102.56819,-59.723784)">
          <path
             id="path894"
             d="m 74.110205,238.65908 a 3.6081385,3.6081385 0 0 0 -3.608048,3.60805 3.6081385,3.6081385 0 0 0 3.608048,3.60804 3.6081385,3.6081385 0 0 0 3.608049,-3.60804 3.6081385,3.6081385 0 0 0 -3.608049,-3.60805 z m -73.1650426,2.07119 v 1.70377 h 2.3388743 v 29.23284 h -2.238621 v 1.87069 H 13.406418 v -1.87069 h -2.772442 v -12.16101 c -0.0041,-0.67928 2.438773,-0.72366 3.875215,1.53685 3.636401,4.22278 2.182892,13.1408 7.550443,13.29687 2.813961,0.0172 6.182601,-1.39078 8.686292,-3.40806 l -0.668176,-1.00201 c -1.498258,0.93153 -3.612639,1.45011 -4.64416,0.66818 -2.021162,-2.09199 -1.944139,-5.5832 -3.507798,-8.48579 -2.546241,-4.99973 -6.128332,-4.53723 -9.621633,-4.54339 l 13.267922,-15.13448 h 2.706296 v -1.57148 h -1.280541 l 0.0047,-0.005 -1.39423,0.005 h -3.3538 v 0.0124 l -1.665015,0.006 -9.822137,15.75149 v -14.19861 h 3.107303 v -1.70377 z m 113.3935976,0.0615 v 4.25246 h 13.51287 v -4.25246 z m -21.072102,6.61459 c -1.562151,-0.0126 -3.064735,0.92845 -3.212725,3.30729 0.0456,1.18995 0.517655,2.14013 1.275374,2.92954 0.345451,1.90169 -3.07917,6.37998 -5.102529,9.35498 l 1.181322,1.27537 c 2.444631,-1.81655 5.026552,-7.54919 6.672461,-6.66781 1.061461,0.41986 1.757026,3.53012 1.794206,6.55154 -0.1254,4.10491 -1.340848,7.00169 -4.167188,7.25072 -3.01466,-0.0307 -3.728373,-0.75415 -5.150072,-1.60662 l -0.850596,0.8506 c 2.153711,3.06934 6.77817,3.6951 8.598959,3.68504 6.09088,-0.004 9.30643,-4.60507 9.26042,-9.02425 -0.0887,-4.80065 -5.690458,-9.86697 -8.158677,-11.68301 0.855588,-0.70489 1.39037,-1.56869 1.450041,-2.77451 -0.0441,-2.14457 -1.831697,-3.46641 -3.590996,-3.44888 z m -21.09587,1.29914 c -2.341329,0.0422 -5.130212,2.18025 -6.70915,4.0163 l 0.685228,0.73225 c 0.741191,-0.75863 3.515942,-2.50593 4.204912,-2.07894 v 16.48943 c 0.0909,4.12841 2.731024,6.30777 5.150072,6.28385 2.888901,0.048 5.802299,-1.86632 8.032068,-3.54345 l -0.945161,-0.89813 c -3.65552,1.97246 -5.731139,1.50936 -5.76399,-1.98438 v -17.43408 c -0.0478,-1.08756 -2.64505,-1.55475 -4.653979,-1.58285 z m 49.113282,0.0253 a 12.708102,12.708102 0 0 0 -12.70827,12.70776 12.708102,12.708102 0 0 0 12.70827,12.70826 12.708102,12.708102 0 0 0 12.70827,-12.70826 12.708102,12.708102 0 0 0 -12.70827,-12.70776 z m -76.305936,0.0822 c -0.176893,-0.005 -0.355148,-0.004 -0.534853,0.002 -6.902728,0.10087 -11.255915,8.04319 -11.225154,13.02969 0.01572,5.37437 3.797932,12.52042 10.223148,12.56151 3.28582,0.1292 6.674868,-1.85086 8.23464,-4.2261 1.102752,0.31543 2.17188,4.26205 5.145423,4.20905 3.468206,-0.0746 6.097159,-2.3018 7.600569,-3.99201 l -0.86868,-0.33383 c -1.884457,1.03358 -5.73569,2.82487 -5.813083,-1.8712 v -18.50843 h -6.147427 v 3.10058 c -1.636258,-2.56915 -3.961207,-3.89862 -6.614583,-3.97133 z m 76.305936,2.26291 a 6.4884461,10.362701 0 0 1 6.48849,10.36268 6.4884461,10.362701 0 0 1 -6.48849,10.36267 6.4884461,10.362701 0 0 1 -6.48849,-10.36267 6.4884461,10.362701 0 0 1 6.48849,-10.36268 z m -75.500817,0.5426 c 3.283836,6e-5 5.945894,4.40728 5.945888,9.84385 6e-6,5.43656 -2.662052,9.84379 -5.945888,9.84384 -3.283839,-5e-5 -5.945897,-4.40728 -5.945892,-9.84384 -5e-6,-5.43657 2.662053,-9.8438 5.945892,-9.84385 z m 2.937287,27.33219 c -1.741323,-0.0187 -4.473643,0.96113 -4.560961,3.32331 -0.02331,3.9276 7.472296,6.15282 7.466727,8.78654 0.02727,1.19088 -1.36339,2.62888 -3.621485,2.69544 -2.097283,0.031 -3.609824,-1.15378 -3.615282,-2.62258 h -1.700673 c -0.0072,3.05956 2.83863,4.32325 5.303554,4.32325 3.485179,0 5.437534,-2.54382 5.468398,-4.2757 0.03102,-4.38894 -7.493796,-6.42454 -7.543723,-8.84236 0.01595,-0.98251 1.3467,-1.7392 2.63498,-1.72754 1.597231,-0.0388 3.282593,0.63506 3.491778,1.64641 l 1.483629,0.0331 c 0.0088,-1.10335 -1.324948,-3.39218 -4.806942,-3.33984 z m 30.041059,0.0641 v 16.44189 h 1.701189 v -8.92038 c 0.0254,-0.0303 2.148752,-2.56069 4.69842,-2.50321 2.566231,0.0577 3.488677,1.91866 3.488677,2.80965 l 0.03359,8.61394 h 1.701189 v -8.86819 c -0.0231,-1.86512 -2.404264,-4.14349 -5.223455,-4.11448 -2.842807,0.005 -4.649843,2.27325 -4.649843,2.27325 -0.0199,-1.98286 -0.04098,-3.74907 -0.04858,-5.73247 z m 14.74122,0.047 v 1.70119 h 1.701189 v -1.70119 z m -37.608557,3.96875 v 8.58914 h 0.0181 l -0.0181,0.009 c -0.01593,2.29774 2.196674,3.82819 5.420342,3.82819 3.333628,0 5.564047,-1.57125 5.540745,-3.59874 v -8.82737 h -1.70067 v 8.82737 c -0.138621,1.56816 -2.218785,1.78904 -3.806486,1.87533 -1.286071,0.004 -3.793721,-0.69848 -3.753261,-2.10478 l -0.02635,-0.009 h 0.02635 v -8.58914 z m 37.608557,0 v 12.42611 h 1.606619 v -12.42611 z m -20.398755,0.0207 c -1.29349,-0.014 -3.323048,0.72079 -3.387908,2.49236 -0.0173,2.94559 5.550583,4.61455 5.546432,6.58978 0.02029,0.89313 -0.933845,1.9975 -2.520776,2.04742 -1.55789,0.0233 -2.850547,-0.89109 -2.854605,-1.99265 h -1.263489 c -0.005,2.29459 2.277793,3.26853 4.108791,3.26854 2.540953,0 3.870373,-1.93453 3.893304,-3.2334 0.0231,-3.29158 -5.566703,-4.81783 -5.603792,-6.63112 0.01191,-0.73685 1.000027,-1.30426 1.956988,-1.29552 1.186449,-0.0291 2.438765,0.47606 2.594154,1.23455 l 1.10226,0.0248 c 0.007,-0.82749 -0.984869,-2.54402 -3.571359,-2.50476 z"
             style="opacity:1;fill:#f9f9f9;fill-opacity:1;stroke:none;stroke-width:0.09286875;stroke-linecap:round;stroke-linejoin:round;stroke-miterlimit:4;stroke-dasharray:none;stroke-dashoffset:0;stroke-opacity:1;paint-order:stroke markers fill"
             inkscape:connector-curvature="0" />
        </g>
      </g>
    </g>
  </g>
</svg>
