<svg id="Capa_1" enable-background="new 0 0 512 512" height="512" viewBox="0 0 512 512" width="512" xmlns="http://www.w3.org/2000/svg"><g><path d="m383.467 247.078c27.166 0 49.267-22.102 49.267-49.268s-22.101-49.267-49.267-49.267-49.267 22.102-49.267 49.268 22.101 49.267 49.267 49.267zm-15.992-64.267h32v30h-32z"/><path d="m0 338.222v50.446h32v54.054h64v-54.054h320v54.054h64v-54.054h32v-50.446z"/><path d="m62.711 308.222h131.623c33.058-19.744 56.516-53.895 61.666-93.797 5.15 39.902 28.607 74.054 61.666 93.797h131.623c37.556-22.437 62.711-63.483 62.711-110.411 0-70.987-57.546-128.533-128.533-128.533-65.357 0-119.318 48.781-127.467 111.92-8.149-63.139-62.11-111.92-127.467-111.92-70.987 0-128.533 57.546-128.533 128.533 0 46.928 25.155 87.974 62.711 110.411zm320.756-189.678c43.708 0 79.267 35.559 79.267 79.267s-35.559 79.268-79.267 79.268-79.267-35.56-79.267-79.268 35.559-79.267 79.267-79.267zm-209.617 27.797 28.979 7.764-8.282 30.91-28.979-7.764zm20.696 64.266 8.282 30.91-28.979 7.764-8.282-30.91zm-65.298-98.983 21.213 21.213-22.627 22.628-21.213-21.213zm15.293 71.187v30h-32v-30zm-15.293 57.346 21.213 21.213-22.627 22.628-21.213-21.213zm-46.016-93.816 8.282 30.91-28.979 7.764-8.282-30.91zm-20.696 64.266 28.979 7.764-8.282 30.91-28.979-7.764z"/></g></svg>