<?xml version="1.0" encoding="UTF-8" standalone="no"?>
<!-- Created with Inkscape (http://www.inkscape.org/) -->

<svg
   xmlns:dc="http://purl.org/dc/elements/1.1/"
   xmlns:cc="http://creativecommons.org/ns#"
   xmlns:rdf="http://www.w3.org/1999/02/22-rdf-syntax-ns#"
   xmlns:svg="http://www.w3.org/2000/svg"
   xmlns="http://www.w3.org/2000/svg"
   xmlns:sodipodi="http://sodipodi.sourceforge.net/DTD/sodipodi-0.dtd"
   xmlns:inkscape="http://www.inkscape.org/namespaces/inkscape"
   width="32"
   height="32"
   viewBox="0 0 8.4666667 8.4666671"
   version="1.1"
   id="svg8"
   inkscape:version="0.92.4 (5da689c313, 2019-01-14)"
   sodipodi:docname="ico.svg"
   inkscape:export-filename="C:\Users\Windows 10\Desktop\ico.png"
   inkscape:export-xdpi="96.300003"
   inkscape:export-ydpi="96.300003">
  <defs
     id="defs2" />
  <sodipodi:namedview
     id="base"
     pagecolor="#ffffff"
     bordercolor="#666666"
     borderopacity="1.0"
     inkscape:pageopacity="0.0"
     inkscape:pageshadow="2"
     inkscape:zoom="11.2"
     inkscape:cx="27.90667"
     inkscape:cy="16.976959"
     inkscape:document-units="mm"
     inkscape:current-layer="layer2"
     showgrid="false"
     inkscape:window-width="1366"
     inkscape:window-height="705"
     inkscape:window-x="-8"
     inkscape:window-y="-8"
     inkscape:window-maximized="1"
     showguides="true"
     inkscape:guide-bbox="true"
     units="px" />
  <metadata
     id="metadata5">
    <rdf:RDF>
      <cc:Work
         rdf:about="">
        <dc:format>image/svg+xml</dc:format>
        <dc:type
           rdf:resource="http://purl.org/dc/dcmitype/StillImage" />
        <dc:title></dc:title>
      </cc:Work>
    </rdf:RDF>
  </metadata>
  <g
     inkscape:groupmode="layer"
     id="layer2"
     inkscape:label="draw"
     transform="translate(0,-288.5333)">
    <path
       style="opacity:1;fill:#000000;fill-opacity:1;stroke:none;stroke-width:0.33435178;stroke-linecap:round;stroke-linejoin:round;stroke-miterlimit:4;stroke-dasharray:none;stroke-dashoffset:0;stroke-opacity:1;paint-order:stroke markers fill"
       d="M 16 0.78515625 A 15.215421 15.215421 0 0 0 13.648438 0.9765625 C 13.664903 1.0335077 13.681469 1.0911565 13.650391 1.1484375 L 13.652344 2.0273438 A 14.303179 14.303179 0 0 1 16.667969 1.6972656 A 14.303179 14.303179 0 0 1 21.173828 2.4375 A 14.303713 13.815165 0 0 0 18.490234 2.1855469 A 14.303713 13.815165 0 0 0 13.654297 3.0117188 L 13.658203 5.6796875 C 13.690568 5.7598135 13.674606 5.8324859 13.658203 5.9042969 L 12.742188 6.0234375 C 12.701064 5.9724139 12.721665 5.8234473 12.742188 5.7421875 L 12.748047 3.3652344 A 14.303713 13.815165 0 0 0 4.1855469 16 A 14.303713 13.815165 0 0 0 5.5585938 21.871094 C 6.1301966 20.551449 5.6709771 18.722368 6.3554688 18.460938 C 6.4813685 18.412937 6.5951844 18.386592 6.6972656 18.382812 C 6.7312927 18.381226 6.7632872 18.382158 6.7949219 18.384766 C 7.0057802 18.402907 7.1645573 18.520452 7.2890625 18.722656 C 7.4882735 19.046373 7.7883389 19.59375 8 19.59375 C 8.2116596 19.59375 8.5961867 19.681886 8.5214844 19.980469 C 8.4467794 20.279316 8.0747024 20.566306 8 20.703125 C 7.9567626 20.782379 7.2921572 22.237757 6.6230469 23.695312 A 14.303713 13.815165 0 0 0 11.302734 27.927734 C 11.171517 27.322444 11.087891 26.628044 11.087891 25.804688 L 20.320312 25.804688 L 28.892578 19.021484 L 29.388672 19.667969 L 21.248047 25.804688 L 22.003906 25.804688 L 29.291016 22.556641 L 29.496094 23 A 15.215421 15.215421 0 0 0 31.214844 16 A 15.215421 15.215421 0 0 0 16 0.78515625 z M 12.753906 1.1542969 A 15.215421 15.215421 0 0 0 0.78515625 16 A 15.215421 15.215421 0 0 0 4.2695312 25.671875 C 4.4525784 25.168845 4.6502301 24.610745 4.84375 24.044922 A 14.303179 14.303179 0 0 1 2.3652344 16 A 14.303179 14.303179 0 0 1 12.75 2.2578125 L 12.753906 1.1542969 z M 18.949219 3.2148438 C 19.043589 3.3611114 19.193774 3.4887469 19.335938 3.6191406 C 19.311458 3.6637391 19.263707 3.6975191 19.21875 3.7050781 L 18.15625 4.5429688 C 18.113677 4.6423702 17.990234 4.671875 17.990234 4.671875 L 17.332031 4.1054688 C 17.332031 4.1054688 17.412001 4.009132 17.541016 3.9902344 L 18.808594 3.2929688 C 18.843006 3.2581971 18.88991 3.2337413 18.949219 3.2148438 z M 16.527344 4.5605469 L 17.292969 4.9277344 C 17.26991 5.0082383 17.259029 5.0361133 17.167969 5.0996094 L 16.298828 6.2871094 C 16.278294 6.4280858 16.136719 6.5078125 16.136719 6.5078125 L 15.326172 6.1289062 C 15.3654 6.0567174 15.395651 5.9820962 15.482422 5.9257812 L 16.390625 4.7382812 C 16.413374 4.6558876 16.463179 4.6013658 16.527344 4.5605469 z M 11.166016 5.3007812 C 11.166016 5.3007812 12.681049 6.5514893 13.033203 6.6308594 C 13.385364 6.7101161 13.148438 7.1582031 13.148438 7.1582031 C 13.148437 7.1582031 12.794854 7.5368639 12.257812 7.1054688 C 11.720772 6.6740735 10.963524 6.0755466 11.166016 5.3007812 z M 14.560547 7.3925781 C 14.782221 7.4405781 15.003221 7.4871563 15.330078 7.5351562 C 15.326835 7.6692917 15.334542 7.832995 15.138672 7.9316406 L 12.619141 11.476562 C 12.593886 11.673098 12.40625 11.738281 12.40625 11.738281 C 11.646765 11.582678 11.435547 10.941406 11.435547 10.941406 C 11.474291 10.789469 11.573513 10.713702 11.697266 10.679688 L 14.306641 7.6855469 C 14.345978 7.4757831 14.474823 7.4039167 14.560547 7.3925781 z M 10.439453 12.21875 C 10.449771 12.216898 10.459516 12.2172 10.470703 12.21875 C 10.638945 12.244678 10.908192 12.658409 11.398438 12.746094 C 12.095672 12.870591 12.419206 13.131789 12.431641 13.380859 C 12.44409 13.629892 11.833984 13.765625 11.833984 13.765625 C 11.833984 13.765625 9.7185027 16.591835 9.5566406 16.791016 C 9.3947786 16.990235 9.5051209 18.559831 9.3183594 18.771484 C 9.1316012 18.984272 8.4477455 18.822128 8.2734375 18.759766 C 8.0991298 18.697479 7.9623958 18.349572 7.8378906 18.150391 C 7.7133847 17.95121 7.1269531 17.888672 7.1269531 17.888672 C 6.9692486 17.606492 6.9780282 17.356436 7.1523438 17.140625 L 7.5136719 17.003906 L 10.091797 13.332031 L 10.302734 12.447266 C 10.340084 12.294951 10.3842 12.230089 10.439453 12.21875 z M 17.679688 12.751953 C 17.783472 12.753087 17.890958 12.806099 18.007812 12.941406 C 18.381745 13.375107 16.717007 14.255612 16.158203 13.945312 C 16.158203 13.945313 16.616566 13.50637 16.986328 13.207031 C 17.240544 13.001463 17.451362 12.748778 17.679688 12.751953 z M 16.740234 14.613281 L 16.740234 14.615234 C 16.889639 14.615234 17.138904 14.777997 17.101562 14.902344 C 17.064199 15.027068 17.325186 15.29972 17.175781 15.349609 C 17.026375 15.399575 15.768282 15.585975 15.158203 15.785156 C 14.548124 15.984337 11.522699 17.006821 11.236328 17.09375 C 10.949967 17.180868 10.887202 17.541153 10.712891 17.603516 C 10.538589 17.665878 10.141109 17.702504 10.166016 17.416016 C 10.190892 17.129679 9.8427826 16.732384 10.091797 16.533203 C 10.091797 16.533203 10.17848 16.494141 10.464844 16.494141 C 10.751206 16.494141 11.299574 16.418515 11.585938 16.306641 C 11.872301 16.194578 16.590822 14.613281 16.740234 14.613281 z M 16.242188 16.056641 C 16.721336 16.055053 17.166457 16.156493 17.474609 16.443359 C 17.474609 16.443359 17.591789 16.772498 15.720703 16.802734 C 16.330576 17.052675 16.416708 17.502647 16.158203 17.837891 C 15.647572 18.366117 14.866193 17.830471 14.46875 17.574219 C 14.071307 17.31808 12.970703 16.78125 12.970703 16.78125 C 13.249254 16.728337 13.502826 16.692472 13.742188 16.666016 C 14.155853 16.490494 15.264867 16.060345 16.242188 16.056641 z M 29.300781 23.380859 L 23.322266 25.804688 L 24.609375 25.804688 C 24.609375 25.804688 24.429485 27.473297 23.833984 29.025391 A 15.215421 15.215421 0 0 0 29.300781 23.380859 z M 5.8515625 25.345703 C 5.7442614 25.570699 5.5185131 26.069321 5.46875 26.162109 C 5.3898597 26.309204 5.3258673 26.526355 5.2675781 26.769531 A 15.215421 15.215421 0 0 0 12.992188 30.914062 C 12.589663 30.599972 12.161035 30.135535 11.8125 29.441406 A 14.303179 14.303179 0 0 1 5.8515625 25.345703 z "
       transform="matrix(0.26458333,0,0,0.26458333,0,288.5333)"
       id="path1081" />
  </g>
</svg>
