<?xml version="1.0" encoding="UTF-8" standalone="no"?>
<!-- Created with Inkscape (http://www.inkscape.org/) -->

<svg
   xmlns:dc="http://purl.org/dc/elements/1.1/"
   xmlns:cc="http://creativecommons.org/ns#"
   xmlns:rdf="http://www.w3.org/1999/02/22-rdf-syntax-ns#"
   xmlns:svg="http://www.w3.org/2000/svg"
   xmlns="http://www.w3.org/2000/svg"
   xmlns:sodipodi="http://sodipodi.sourceforge.net/DTD/sodipodi-0.dtd"
   xmlns:inkscape="http://www.inkscape.org/namespaces/inkscape"
   width="510"
   height="460"
   viewBox="0 0 134.9375 121.70834"
   version="1.1"
   id="svg8"
   inkscape:version="0.92.4 (5da689c313, 2019-01-14)"
   sodipodi:docname="kaiso.svg">
  <defs
     id="defs2" />
  <sodipodi:namedview
     id="base"
     pagecolor="#ffffff"
     bordercolor="#666666"
     borderopacity="1.0"
     inkscape:pageopacity="0.0"
     inkscape:pageshadow="2"
     inkscape:zoom="0.7"
     inkscape:cx="305.43272"
     inkscape:cy="180.86666"
     inkscape:document-units="mm"
     inkscape:current-layer="layer2"
     showgrid="false"
     inkscape:window-width="1366"
     inkscape:window-height="705"
     inkscape:window-x="-8"
     inkscape:window-y="-8"
     inkscape:window-maximized="1"
     showguides="true"
     inkscape:guide-bbox="true"
     units="px" />
  <metadata
     id="metadata5">
    <rdf:RDF>
      <cc:Work
         rdf:about="">
        <dc:format>image/svg+xml</dc:format>
        <dc:type
           rdf:resource="http://purl.org/dc/dcmitype/StillImage" />
        <dc:title></dc:title>
      </cc:Work>
    </rdf:RDF>
  </metadata>
  <g
     inkscape:groupmode="layer"
     id="layer2"
     inkscape:label="draw"
     transform="translate(0,-175.29163)">
    <g
       id="g1062"
       transform="translate(-40.347924,101.21889)">
      <g
         id="g1054">
        <g
           id="g946">
          <circle
             r="22.91836"
             cy="112.24993"
             cx="101.89651"
             id="path861"
             style="opacity:1;fill:#ff2900;fill-opacity:1;stroke:none;stroke-width:0.0995437;stroke-linecap:round;stroke-linejoin:round;stroke-miterlimit:4;stroke-dasharray:none;stroke-dashoffset:0;stroke-opacity:1;paint-order:stroke markers fill" />
          <path
             inkscape:connector-curvature="0"
             id="path861-8"
             transform="scale(0.26458333)"
             d="m 389.66602,343.42773 a 81.328774,81.328774 0 0 0 -81.32813,81.33008 81.328774,81.328774 0 0 0 81.32813,81.32813 81.328774,81.328774 0 0 0 25.46679,-4.19727 81.331809,78.553897 0 0 1 -15.11328,1.42188 81.331809,78.553897 0 0 1 -81.33008,-78.55274 81.331809,78.553897 0 0 1 81.33008,-78.55469 81.331809,78.553897 0 0 1 15.26758,1.43555 81.328774,81.328774 0 0 0 -25.62109,-4.21094 z"
             style="opacity:1;fill:#f9f9f9;fill-opacity:1;stroke:none;stroke-width:0.35324368;stroke-linecap:round;stroke-linejoin:round;stroke-miterlimit:4;stroke-dasharray:none;stroke-dashoffset:0;stroke-opacity:1;paint-order:stroke markers fill" />
        </g>
        <path
           inkscape:connector-curvature="0"
           style="fill:#f9f9f9;stroke:none;stroke-width:0.99999994px;stroke-linecap:butt;stroke-linejoin:miter;stroke-opacity:1"
           d="m 401.24414,285.79297 c -0.17235,1.11404 -0.51039,2.17195 -0.006,3.51172 l -0.0781,34.95508 c -0.14741,0.58302 -0.29909,1.64384 -0.004,2.00781 l 6.56641,-0.84961 c 0.11777,-0.51509 0.22778,-1.03023 -0.004,-1.60352 l -0.0488,-32.5 c 0.22791,-0.42025 0.10532,-0.84146 -0.0156,-1.26172 -2.14659,-1.38895 -6.40821,-4.25976 -6.40821,-4.25976 z m 44.42578,20.34375 c -0.42531,0.13017 -0.77273,0.31138 -1.01953,0.56055 l -9.08984,4.99804 c -0.92519,0.14706 -1.49805,0.82422 -1.49805,0.82422 l 4.73242,4.0625 c 0,0 0.88418,-0.21008 1.18946,-0.92969 l 7.60742,-5.99804 c 0.32239,-0.0651 0.67018,-0.29784 0.8457,-0.61719 -1.01949,-0.93497 -2.09085,-1.85117 -2.76758,-2.90039 z m -17.36719,9.64258 c -0.46014,0.2929 -0.81536,0.68941 -0.97851,1.27929 l -6.51758,8.50977 c -0.62227,0.40378 -0.83781,0.9435 -1.11914,1.46094 l 5.80273,2.72265 c 0,0 1.01684,-0.57905 1.16407,-1.58984 l 6.23632,-8.51367 c 0.65301,-0.45573 0.73895,-0.65741 0.9043,-1.23633 z m -38.44726,5.31054 c -1.4521,5.55584 3.9769,9.84977 7.82812,12.94336 3.85123,3.09359 6.37696,0.37891 6.37696,0.37891 0,0 1.70509,-3.22086 -0.82032,-3.78906 -2.52536,-0.56821 -13.38476,-9.53321 -13.38476,-9.53321 z m 24.3418,15.00196 c -0.61474,0.086 -1.54407,0.59221 -1.82618,2.0957 l -18.71093,21.47461 c -0.88747,0.2527 -1.59717,0.78586 -1.875,1.875 0,0 1.51843,4.59877 6.96484,5.71484 0,0 1.33646,-0.46438 1.51758,-1.875 l 18.07422,-25.41406 c 1.40462,-0.7098 1.34394,-1.88195 1.36718,-2.8457 -2.34395,-0.34228 -3.92205,-0.68313 -5.51171,-1.02539 z m -29.32813,34.61132 c -0.0804,-0.0124 -0.15813,-0.0119 -0.23242,0.002 -0.39621,0.0739 -0.70871,0.54297 -0.97656,1.63672 l -1.51758,6.33789 -18.48242,26.33984 -2.58789,0.98242 c -1.25003,1.54761 -1.31062,3.3336 -0.17969,5.35743 0,0 4.19698,0.44656 5.08984,1.875 0.89286,1.42857 1.875,3.92856 3.125,4.375 1.25,0.44642 6.16072,1.60582 7.5,0.0879 1.33929,-1.51786 0.53459,-12.76673 1.69531,-14.19532 1.16074,-1.42854 16.33985,-21.69726 16.33985,-21.69726 0,0 4.37443,-0.98187 4.28515,-2.76758 -0.0892,-1.78571 -2.41014,-3.65988 -7.41015,-4.55273 -3.51564,-0.6278 -5.44194,-3.59557 -6.64844,-3.78126 z m 51.68945,3.81641 c -1.63738,-0.0223 -3.14767,1.78986 -4.9707,3.26563 -2.65164,2.14655 -5.93555,5.30273 -5.93555,5.30273 4.00729,2.2255 15.94131,-4.08735 13.25977,-7.19727 -0.83798,-0.97183 -1.60925,-1.36093 -2.35352,-1.37109 z m -6.73632,13.35742 c -1.07146,0 -34.91128,11.33902 -36.96485,12.14258 -2.05357,0.80357 -5.98159,1.33985 -8.03515,1.33985 -2.05357,0 -2.67969,0.26757 -2.67969,0.26757 -1.78572,1.42859 0.71355,4.28628 0.53515,6.33985 -0.17858,2.05357 2.67973,1.78429 3.92969,1.33789 1.25001,-0.44644 1.69643,-3.03518 3.75,-3.66016 2.05361,-0.62498 23.75001,-7.94641 28.125,-9.375 4.37499,-1.42855 13.39343,-2.76783 14.46485,-3.125 1.07142,-0.35713 -0.80508,-2.32197 -0.53711,-3.21484 0.26785,-0.89284 -1.51647,-2.05274 -2.58789,-2.05274 z m -3.5625,10.34766 c -7.00855,0.0253 -14.97298,3.11265 -17.93946,4.37109 -1.7165,0.19279 -3.52394,0.44404 -5.52148,0.82227 0,0 7.88228,3.84486 10.73242,5.68164 2.85014,1.83677 8.45926,5.6826 12.12109,1.89453 1.8538,-2.40307 1.23485,-5.62555 -3.13867,-7.41797 13.41791,-0.22661 12.57617,-2.57422 12.57617,-2.57422 -2.20982,-2.05915 -5.394,-2.78975 -8.83007,-2.77734 z m -68.45508,16.68164 c -0.73204,0.0374 -1.54439,0.22182 -2.44727,0.56055 -4.91071,1.87498 -1.6077,14.99857 -5.71484,24.46289 -1.51785,5.53572 -10.35769,31.60742 -13.21485,37.23242 -2.85713,5.62503 -8.65932,6.87497 -9.46289,10 -0.80357,3.12499 5.09152,3.3404 7.23438,8.42969 2.14285,5.08928 5.50408,8.67169 8.47851,7.82031 2.54081,-0.91453 2.61471,-25.80943 6.32032,-32.71875 2.55891,-4.77124 17.60881,-38.1741 18.14453,-39.15625 0.53571,-0.98215 3.21428,-3.0349 3.75,-5.17773 0.53571,-2.14288 -2.23214,-2.76758 -3.75,-2.76758 -1.51786,0 -3.66127,-3.92858 -5.08985,-6.25 -0.89285,-1.45092 -2.03084,-2.29179 -3.54296,-2.42383 -0.22682,-0.0198 -0.46107,-0.0242 -0.70508,-0.0117 z m 159.16015,4.57813 -61.46679,48.64843 h -66.21289 c 0,37.96785 23.03711,41.14649 23.03711,41.14649 0,0 28.74947,0.5625 49.28515,0.5625 20.53572,0 24.64258,-41.70899 24.64258,-41.70899 h -9.22461 l 45.11719,-18.29101 -2.32031,-5 -52.25391,23.29101 h -5.41211 l 58.37891,-44.00586 z"
           transform="scale(0.26458333)"
           id="path829" />
        <path
           inkscape:connector-curvature="0"
           style="opacity:1;fill:#f9f9f9;fill-opacity:1;stroke:none;stroke-width:0.35100001;stroke-linecap:round;stroke-linejoin:round;stroke-miterlimit:4;stroke-dasharray:none;stroke-dashoffset:0;stroke-opacity:1;paint-order:stroke markers fill"
           d="m 432.59766,519.45898 a 13.637059,13.637059 0 0 0 -13.63672,13.63672 13.637059,13.637059 0 0 0 13.63672,13.63672 13.637059,13.637059 0 0 0 13.63672,-13.63672 13.637059,13.637059 0 0 0 -13.63672,-13.63672 z m -276.5293,7.82813 v 6.43945 h 8.83984 v 110.48633 h -8.46093 v 7.07031 h 46.71875 v -7.07031 H 192.6875 V 598.25 c -0.0155,-2.56736 9.21741,-2.73507 14.64648,5.80859 13.74388,15.96012 8.2503,49.66599 28.53711,50.25586 10.63544,0.065 23.36731,-5.25649 32.83008,-12.88086 l -2.52539,-3.78711 c -5.66271,3.52075 -13.65407,5.48075 -17.55273,2.5254 -7.63904,-7.90674 -7.34793,-21.10185 -13.25782,-32.07227 C 225.74164,589.20299 212.20303,590.95102 199,590.92773 l 50.14648,-57.20117 H 259.375 v -5.93945 h -4.83984 l 0.0176,-0.0195 -5.26953,0.0195 h -12.67578 v 0.0469 l -6.29297,0.0234 -37.12304,59.5332 v -53.66406 h 11.74414 v -6.43945 z m 428.57422,0.23242 v 16.07227 h 51.07226 v -16.07227 z m -79.64258,25 c -5.90419,-0.0476 -11.58325,3.50911 -12.14258,12.5 0.17235,4.49745 1.95649,8.08867 4.82031,11.07227 1.30564,7.18749 -11.63781,24.11332 -19.28515,35.35742 l 4.46484,4.82031 c 9.23955,-6.8657 18.99799,-28.53237 25.21875,-25.20117 4.01182,1.58687 6.64073,13.34218 6.78125,24.76172 -0.47395,15.51462 -5.06777,26.46308 -15.75,27.4043 -11.39399,-0.11604 -14.09149,-2.85034 -19.46484,-6.07227 l -3.21485,3.21484 c 8.14001,11.60066 25.61828,13.96576 32.5,13.92774 23.02065,-0.0151 35.1739,-17.40501 35,-34.10742 -0.33524,-18.14419 -21.50723,-37.29248 -30.83593,-44.15625 3.23372,-2.66416 5.25494,-5.9289 5.48047,-10.48633 C 518.40559,557.44923 511.64932,552.45328 505,552.51953 Z m -79.73242,4.91016 c -8.84912,0.15949 -19.38978,8.24032 -25.35742,15.17969 l 2.58984,2.76757 c 2.80135,-2.86726 13.2886,-9.47124 15.89258,-7.85742 v 62.32227 c 0.34356,15.60344 10.32198,23.8404 19.46484,23.75 10.91868,0.18141 21.92995,-7.05382 30.35742,-13.39258 l -3.57226,-3.39453 c -13.81614,7.455 -21.661,5.70468 -21.78516,-7.5 v -65.89258 c -0.18066,-4.11046 -9.99704,-5.87622 -17.58984,-5.98242 z m 185.625,0.0957 a 48.030624,48.030621 0 0 0 -48.03125,48.0293 48.030624,48.030621 0 0 0 48.03125,48.03125 48.030624,48.030621 0 0 0 48.03125,-48.03125 48.030624,48.030621 0 0 0 -48.03125,-48.0293 z m -288.40039,0.31055 c -0.66857,-0.0183 -1.34229,-0.0161 -2.02149,0.008 -26.08905,0.38127 -42.54204,30.39946 -42.42578,49.24609 0.0594,20.31258 14.35439,47.32127 38.63867,47.47657 12.41885,0.48833 25.22785,-6.99539 31.12305,-15.97266 4.16788,1.19216 8.20868,16.10855 19.44727,15.9082 13.10818,-0.28191 23.04438,-8.69971 28.72656,-15.08789 l -3.2832,-1.26172 c -7.12236,3.90642 -21.6782,10.67665 -21.97071,-7.07226 v -69.95313 h -23.23437 v 11.71875 c -6.18428,-9.71019 -14.97149,-14.73495 -25,-15.00976 z m 288.40039,8.55273 a 24.523261,39.166116 0 0 1 24.52344,39.16602 24.523261,39.166116 0 0 1 -24.52344,39.16601 24.523261,39.166116 0 0 1 -24.52344,-39.16601 24.523261,39.166116 0 0 1 24.52344,-39.16602 z m -285.35742,2.05078 c 12.41135,2e-4 22.47267,16.65743 22.47265,37.20508 2e-5,20.54765 -10.0613,37.20488 -22.47265,37.20508 -12.41136,-1.9e-4 -22.47268,-16.65743 -22.47266,-37.20508 -2e-5,-20.54765 10.0613,-37.20489 22.47266,-37.20508 z m 11.10156,103.30274 c -6.58138,-0.0707 -16.90826,3.63262 -17.23828,12.56054 -0.0881,14.84448 28.24175,23.25477 28.2207,33.20899 0.10307,4.50096 -5.15297,9.93593 -13.6875,10.1875 -7.92674,0.11716 -13.64343,-4.36074 -13.66406,-9.91211 h -6.42774 c -0.0272,11.56369 10.72868,16.33981 20.04493,16.33984 13.17233,0 20.55131,-9.61446 20.66796,-16.16015 0.11725,-16.58812 -28.32301,-24.28171 -28.51171,-33.41992 0.0603,-3.71343 5.08989,-6.57337 9.95898,-6.5293 6.03678,-0.14665 12.40665,2.40023 13.19727,6.22265 l 5.60742,0.125 c 0.0333,-4.17014 -5.00768,-12.82086 -18.16797,-12.62304 z m 113.54101,0.24219 v 62.14257 h 6.42969 v -33.71484 c 0.096,-0.11452 8.12127,-9.67819 17.75781,-9.46094 9.69914,0.21808 13.18555,7.25162 13.18555,10.61914 l 0.12695,32.55664 h 6.42969 v -33.51757 c -0.0873,-7.04928 -9.08698,-15.66043 -19.74219,-15.55079 -10.74447,0.0189 -17.57421,8.5918 -17.57421,8.5918 -0.0752,-7.49427 -0.15487,-14.1697 -0.1836,-21.66601 z m 55.71485,0.17773 v 6.42969 h 6.42969 v -6.42969 z m -142.14258,15 V 719.625 h 0.0684 l -0.0684,0.0332 c -0.0602,8.68437 8.30239,14.46875 20.48633,14.46875 12.59954,0 21.02947,-5.93861 20.9414,-13.60156 V 687.16211 H 398.75 v 33.36328 c -0.52392,5.9269 -8.38596,6.76172 -14.38672,7.08789 -4.86074,0.0164 -14.33847,-2.63993 -14.18555,-7.95508 l -0.0996,-0.0332 h 0.0996 v -32.46289 z m 142.14258,0 v 46.96484 h 6.07226 v -46.96484 z m -77.09766,0.0781 c -4.88878,-0.0529 -12.55955,2.72423 -12.80469,9.41993 -0.0654,11.13293 20.97858,17.44081 20.96289,24.90625 0.0767,3.37561 -3.52949,7.5496 -9.52734,7.73828 -5.88809,0.0881 -10.77372,-3.36788 -10.78906,-7.53125 h -4.77539 c -0.0189,8.67246 8.60898,12.35348 15.52929,12.35351 9.6036,0 14.62818,-7.31159 14.71485,-12.2207 0.0873,-12.44062 -21.03951,-18.20912 -21.17969,-25.0625 0.045,-2.78498 3.77963,-4.92952 7.39649,-4.89648 4.48422,-0.10999 9.21738,1.79928 9.80468,4.66601 l 4.16602,0.0937 c 0.0265,-3.12752 -3.72234,-9.61518 -13.49805,-9.4668 z"
           transform="scale(0.26458333)"
           id="path894" />
      </g>
    </g>
  </g>
</svg>
