<?xml version="1.0" encoding="UTF-8" standalone="no"?>
<!-- Created with Inkscape (http://www.inkscape.org/) -->

<svg
   width="179"
   height="60"
   viewBox="0 0 47.360417 15.875001"
   version="1.1"
   id="svg8"
   inkscape:version="1.1 (c68e22c387, 2021-05-23)"
   sodipodi:docname="179x60.svg"
   inkscape:export-filename="C:\Users\Windows 10\Desktop\179x60.png"
   inkscape:export-xdpi="96"
   inkscape:export-ydpi="96"
   xmlns:inkscape="http://www.inkscape.org/namespaces/inkscape"
   xmlns:sodipodi="http://sodipodi.sourceforge.net/DTD/sodipodi-0.dtd"
   xmlns="http://www.w3.org/2000/svg"
   xmlns:svg="http://www.w3.org/2000/svg"
   xmlns:rdf="http://www.w3.org/1999/02/22-rdf-syntax-ns#"
   xmlns:cc="http://creativecommons.org/ns#"
   xmlns:dc="http://purl.org/dc/elements/1.1/">
  <defs
     id="defs2" />
  <sodipodi:namedview
     id="base"
     pagecolor="#ffffff"
     bordercolor="#666666"
     borderopacity="1.0"
     inkscape:pageopacity="0.0"
     inkscape:pageshadow="2"
     inkscape:zoom="1.4"
     inkscape:cx="87.5"
     inkscape:cy="-6.7857143"
     inkscape:document-units="mm"
     inkscape:current-layer="layer2"
     showgrid="false"
     inkscape:window-width="1366"
     inkscape:window-height="705"
     inkscape:window-x="-8"
     inkscape:window-y="-8"
     inkscape:window-maximized="1"
     showguides="true"
     inkscape:guide-bbox="true"
     units="px"
     inkscape:pagecheckerboard="0" />
  <metadata
     id="metadata5">
    <rdf:RDF>
      <cc:Work
         rdf:about="">
        <dc:format>image/svg+xml</dc:format>
        <dc:type
           rdf:resource="http://purl.org/dc/dcmitype/StillImage" />
      </cc:Work>
    </rdf:RDF>
  </metadata>
  <g
     inkscape:groupmode="layer"
     id="layer2"
     inkscape:label="draw"
     transform="translate(0,-175.29163)">
    <g
       id="g883"
       transform="matrix(1.0939666,0,0,1.0939666,-1.4288639,-17.47)">
      <g
         id="g946"
         transform="matrix(0.20298645,0,0,0.20298645,-12.836539,162.06683)">
        <circle
           r="22.91836"
           cy="112.24993"
           cx="101.89651"
           id="path861"
           style="opacity:1;fill:#ff2900;fill-opacity:1;stroke:none;stroke-width:0.0995437;stroke-linecap:round;stroke-linejoin:round;stroke-miterlimit:4;stroke-dasharray:none;stroke-dashoffset:0;stroke-opacity:1;paint-order:stroke markers fill" />
        <path
           inkscape:connector-curvature="0"
           id="path861-8"
           transform="scale(0.26458333)"
           d="m 389.66602,343.42773 a 81.328774,81.328774 0 0 0 -81.32813,81.33008 81.328774,81.328774 0 0 0 81.32813,81.32813 81.328774,81.328774 0 0 0 25.46679,-4.19727 81.331809,78.553897 0 0 1 -15.11328,1.42188 81.331809,78.553897 0 0 1 -81.33008,-78.55274 81.331809,78.553897 0 0 1 81.33008,-78.55469 81.331809,78.553897 0 0 1 15.26758,1.43555 81.328774,81.328774 0 0 0 -25.62109,-4.21094 z"
           style="opacity:1;fill:#f9f9f9;fill-opacity:1;stroke:none;stroke-width:0.353244;stroke-linecap:round;stroke-linejoin:round;stroke-miterlimit:4;stroke-dasharray:none;stroke-dashoffset:0;stroke-opacity:1;paint-order:stroke markers fill" />
      </g>
      <path
         inkscape:connector-curvature="0"
         style="fill:#333333;stroke:none;stroke-width:0.0537068px;stroke-linecap:butt;stroke-linejoin:miter;stroke-opacity:1"
         d="m 8.713013,177.41587 c -0.00926,0.0598 -0.027412,0.11665 -3.247e-4,0.1886 l -0.00419,1.87733 c -0.00792,0.0313 -0.016062,0.0883 -2.233e-4,0.10783 l 0.3526611,-0.0456 c 0.00632,-0.0277 0.012234,-0.0553 -2.233e-4,-0.0861 l -0.00262,-1.74548 c 0.01224,-0.0225 0.00565,-0.0452 -8.297e-4,-0.0678 -0.1152866,-0.0746 -0.3441648,-0.22878 -0.3441648,-0.22878 z m 2.385968,1.0926 c -0.02284,0.007 -0.0415,0.0167 -0.05476,0.0301 l -0.488186,0.26844 c -0.04969,0.008 -0.08046,0.0443 -0.08046,0.0443 l 0.254163,0.21819 c 0,0 0.04749,-0.0113 0.06388,-0.0499 l 0.408582,-0.3222 c 0.01731,-0.004 0.03599,-0.016 0.04542,-0.0331 -0.05476,-0.0502 -0.112293,-0.0994 -0.148638,-0.15578 z m -0.932737,0.51787 c -0.02472,0.0157 -0.04379,0.037 -0.05255,0.0687 l -0.3500393,0.45703 c -0.033421,0.0217 -0.044996,0.0507 -0.060105,0.0785 l 0.3116453,0.14622 c 0,0 0.05461,-0.0311 0.06252,-0.0854 l 0.334934,-0.45724 c 0.03507,-0.0245 0.03969,-0.0353 0.04856,-0.0664 z m -2.0648806,0.28521 c -0.077988,0.29839 0.2135869,0.529 0.4204237,0.69515 0.2068374,0.16615 0.3424864,0.0203 0.3424864,0.0203 0,0 0.091575,-0.17299 -0.044057,-0.2035 -0.135629,-0.0305 -0.7188532,-0.512 -0.7188532,-0.512 z m 1.3073211,0.80571 c -0.033016,0.004 -0.082927,0.0318 -0.098078,0.11255 l -1.0049047,1.15334 c -0.047663,0.0136 -0.085779,0.0422 -0.1007004,0.1007 0,0 0.08155,0.24699 0.3740596,0.30693 0,0 0.071777,-0.025 0.081504,-0.1007 l 0.9707093,-1.36491 c 0.075438,-0.0381 0.072179,-0.10108 0.073427,-0.15283 -0.1258863,-0.0184 -0.2106409,-0.0367 -0.296017,-0.0551 z m -1.5751209,1.85887 c -0.00432,-6.1e-4 -0.00849,-6.1e-4 -0.012483,1.1e-4 -0.021279,0.004 -0.038062,0.0292 -0.052448,0.0879 l -0.081505,0.34038 -0.9926322,1.41463 -0.1389873,0.0528 c -0.067135,0.0831 -0.07039,0.17903 -0.00965,0.28773 0,0 0.2254065,0.024 0.2733591,0.1007 0.047952,0.0767 0.1007003,0.21099 0.1678338,0.23496 0.067134,0.0239 0.3308728,0.0863 0.4028012,0.004 0.071929,-0.0815 0.028712,-0.68566 0.09105,-0.76239 0.06234,-0.0767 0.8775616,-1.16529 0.8775616,-1.16529 0,0 0.2349368,-0.0527 0.2301418,-0.14864 -0.00479,-0.0959 -0.129441,-0.19656 -0.3979757,-0.2445 -0.1888139,-0.0337 -0.2922694,-0.19312 -0.3570665,-0.20309 z m 2.7760764,0.20496 c -0.08794,-0.001 -0.169051,0.0961 -0.266961,0.17539 -0.142411,0.11528 -0.318779,0.2848 -0.318779,0.2848 0.215219,0.11951 0.856157,-0.21953 0.71214,-0.38655 -0.045,-0.0522 -0.08643,-0.0731 -0.1264,-0.0736 z m -0.361786,0.71739 c -0.05755,0 -1.8749745,0.60898 -1.9852653,0.65213 -0.1102907,0.0432 -0.3212523,0.072 -0.4315423,0.072 -0.1102909,0 -0.1439178,0.0144 -0.1439178,0.0144 -0.095905,0.0767 0.038322,0.2302 0.028742,0.34048 -0.00959,0.11029 0.1439199,0.0958 0.2110513,0.0719 0.067134,-0.024 0.09111,-0.16301 0.2014005,-0.19658 0.110293,-0.0336 1.2755379,-0.42677 1.5105047,-0.5035 0.2349672,-0.0767 0.7193179,-0.14865 0.7768609,-0.16783 0.05755,-0.0192 -0.04324,-0.12471 -0.02885,-0.17266 0.01439,-0.0479 -0.08144,-0.11025 -0.138987,-0.11025 z m -0.191331,0.55574 c -0.3764068,0.001 -0.8041512,0.16717 -0.9634715,0.23475 -0.092188,0.0104 -0.1892595,0.0239 -0.296541,0.0441 0,0 0.4233322,0.2065 0.5764041,0.30515 0.1530721,0.0986 0.4543198,0.30519 0.6509854,0.10174 0.09956,-0.12906 0.06632,-0.30213 -0.168568,-0.39839 0.720633,-0.0122 0.675426,-0.13826 0.675426,-0.13826 -0.118682,-0.11059 -0.289695,-0.14983 -0.474235,-0.14916 z m -3.6765054,0.89591 c -0.039315,0.002 -0.082944,0.0119 -0.131435,0.0301 -0.2637386,0.1007 -0.086345,0.80553 -0.306926,1.31383 -0.081519,0.2973 -0.5562787,1.69753 -0.7097277,1.99963 -0.1534474,0.30211 -0.4650647,0.36923 -0.5082218,0.53707 -0.043157,0.16783 0.2734493,0.1794 0.3885357,0.45273 0.1150856,0.27333 0.2956066,0.46573 0.4553539,0.42 0.1364588,-0.0491 0.1404278,-1.38614 0.3394442,-1.75722 0.137431,-0.25624 0.9457135,-2.0502 0.9744851,-2.10295 0.028771,-0.0527 0.1726288,-0.163 0.2014008,-0.27808 0.028771,-0.11509 -0.1198812,-0.14864 -0.2014008,-0.14864 -0.081519,0 -0.1966351,-0.21099 -0.2733595,-0.33567 -0.047953,-0.0779 -0.10907,-0.12308 -0.1902812,-0.13017 -0.012182,-7.4e-4 -0.024763,-0.001 -0.037868,-6.1e-4 z m 8.5479874,0.24588 -3.301187,2.61276 H 8.070734 c 0,2.03913 1.2372501,2.20984 1.2372501,2.20984 0,0 1.5440429,0.0302 2.6469489,0.0302 1.102909,0 1.323476,-2.24005 1.323476,-2.24005 h -0.495425 l 2.423101,-0.98235 -0.124616,-0.26854 -2.806392,1.25089 h -0.290668 l 3.135347,-2.36342 z"
         id="path829" />
    </g>
    <g
       id="g841"
       transform="matrix(0.21389439,0,0,0.21389439,16.420335,126.10693)"
       style="fill:#333333">
      <path
         inkscape:connector-curvature="0"
         style="fill:#333333;fill-opacity:1;stroke:none;stroke-width:0.0928688;stroke-linecap:round;stroke-linejoin:round;stroke-miterlimit:4;stroke-dasharray:none;stroke-dashoffset:0;stroke-opacity:1;paint-order:stroke markers fill"
         d="m 74.110205,238.65908 a 3.6081385,3.6081385 0 0 0 -3.608048,3.60805 3.6081385,3.6081385 0 0 0 3.608048,3.60804 3.6081385,3.6081385 0 0 0 3.608049,-3.60804 3.6081385,3.6081385 0 0 0 -3.608049,-3.60805 z m -73.1650426,2.07119 v 1.70377 h 2.3388743 v 29.23284 h -2.238621 v 1.87069 H 13.406418 v -1.87069 h -2.772442 v -12.16101 c -0.0041,-0.67928 2.438773,-0.72366 3.875215,1.53685 3.636401,4.22278 2.182892,13.1408 7.550443,13.29687 2.813961,0.0172 6.182601,-1.39078 8.686292,-3.40806 l -0.668176,-1.00201 c -1.498258,0.93153 -3.612639,1.45011 -4.64416,0.66818 -2.021162,-2.09199 -1.944139,-5.5832 -3.507798,-8.48579 -2.546241,-4.99973 -6.128332,-4.53723 -9.621633,-4.54339 l 13.267922,-15.13448 h 2.706296 v -1.57148 h -1.280541 l 0.0047,-0.005 -1.39423,0.005 h -3.3538 v 0.0124 l -1.665015,0.006 -9.822137,15.75149 v -14.19861 h 3.107303 v -1.70377 z m 113.3935976,0.0615 v 4.25246 h 13.51287 v -4.25246 z m -21.072102,6.61459 c -1.562151,-0.0126 -3.064735,0.92845 -3.212725,3.30729 0.0456,1.18995 0.517655,2.14013 1.275374,2.92954 0.345451,1.90169 -3.07917,6.37998 -5.102529,9.35498 l 1.181322,1.27537 c 2.444631,-1.81655 5.026552,-7.54919 6.672461,-6.66781 1.061461,0.41986 1.757026,3.53012 1.794206,6.55154 -0.1254,4.10491 -1.340848,7.00169 -4.167188,7.25072 -3.01466,-0.0307 -3.728373,-0.75415 -5.150072,-1.60662 l -0.850596,0.8506 c 2.153711,3.06934 6.77817,3.6951 8.598959,3.68504 6.09088,-0.004 9.30643,-4.60507 9.26042,-9.02425 -0.0887,-4.80065 -5.690458,-9.86697 -8.158677,-11.68301 0.855588,-0.70489 1.39037,-1.56869 1.450041,-2.77451 -0.0441,-2.14457 -1.831697,-3.46641 -3.590996,-3.44888 z m -21.09587,1.29914 c -2.341329,0.0422 -5.130212,2.18025 -6.70915,4.0163 l 0.685228,0.73225 c 0.741191,-0.75863 3.515942,-2.50593 4.204912,-2.07894 v 16.48943 c 0.0909,4.12841 2.731024,6.30777 5.150072,6.28385 2.888901,0.048 5.802299,-1.86632 8.032068,-3.54345 l -0.945161,-0.89813 c -3.65552,1.97246 -5.731139,1.50936 -5.76399,-1.98438 v -17.43408 c -0.0478,-1.08756 -2.64505,-1.55475 -4.653979,-1.58285 z m 49.113282,0.0253 a 12.708102,12.708102 0 0 0 -12.70827,12.70776 12.708102,12.708102 0 0 0 12.70827,12.70826 12.708102,12.708102 0 0 0 12.70827,-12.70826 12.708102,12.708102 0 0 0 -12.70827,-12.70776 z m -76.305936,0.0822 c -0.176893,-0.005 -0.355148,-0.004 -0.534853,0.002 -6.902728,0.10087 -11.255915,8.04319 -11.225154,13.02969 0.01572,5.37437 3.797932,12.52042 10.223148,12.56151 3.28582,0.1292 6.674868,-1.85086 8.23464,-4.2261 1.102752,0.31543 2.17188,4.26205 5.145423,4.20905 3.468206,-0.0746 6.097159,-2.3018 7.600569,-3.99201 l -0.86868,-0.33383 c -1.884457,1.03358 -5.73569,2.82487 -5.813083,-1.8712 v -18.50843 h -6.147427 v 3.10058 c -1.636258,-2.56915 -3.961207,-3.89862 -6.614583,-3.97133 z m 76.305936,2.26291 a 6.4884461,10.362701 0 0 1 6.48849,10.36268 6.4884461,10.362701 0 0 1 -6.48849,10.36267 6.4884461,10.362701 0 0 1 -6.48849,-10.36267 6.4884461,10.362701 0 0 1 6.48849,-10.36268 z m -75.500817,0.5426 c 3.283836,6e-5 5.945894,4.40728 5.945888,9.84385 6e-6,5.43656 -2.662052,9.84379 -5.945888,9.84384 -3.283839,-5e-5 -5.945897,-4.40728 -5.945892,-9.84384 -5e-6,-5.43657 2.662053,-9.8438 5.945892,-9.84385 z m 2.937287,27.33219 c -1.741323,-0.0187 -4.473643,0.96113 -4.560961,3.32331 -0.02331,3.9276 7.472296,6.15282 7.466727,8.78654 0.02727,1.19088 -1.36339,2.62888 -3.621485,2.69544 -2.097283,0.031 -3.609824,-1.15378 -3.615282,-2.62258 h -1.700673 c -0.0072,3.05956 2.83863,4.32325 5.303554,4.32325 3.485179,0 5.437534,-2.54382 5.468398,-4.2757 0.03102,-4.38894 -7.493796,-6.42454 -7.543723,-8.84236 0.01595,-0.98251 1.3467,-1.7392 2.63498,-1.72754 1.597231,-0.0388 3.282593,0.63506 3.491778,1.64641 l 1.483629,0.0331 c 0.0088,-1.10335 -1.324948,-3.39218 -4.806942,-3.33984 z m 30.041059,0.0641 v 16.44189 h 1.701189 v -8.92038 c 0.0254,-0.0303 2.148752,-2.56069 4.69842,-2.50321 2.566231,0.0577 3.488677,1.91866 3.488677,2.80965 l 0.03359,8.61394 h 1.701189 v -8.86819 c -0.0231,-1.86512 -2.404264,-4.14349 -5.223455,-4.11448 -2.842807,0.005 -4.649843,2.27325 -4.649843,2.27325 -0.0199,-1.98286 -0.04098,-3.74907 -0.04858,-5.73247 z m 14.74122,0.047 v 1.70119 h 1.701189 v -1.70119 z m -37.608557,3.96875 v 8.58914 h 0.0181 l -0.0181,0.009 c -0.01593,2.29774 2.196674,3.82819 5.420342,3.82819 3.333628,0 5.564047,-1.57125 5.540745,-3.59874 v -8.82737 h -1.70067 v 8.82737 c -0.138621,1.56816 -2.218785,1.78904 -3.806486,1.87533 -1.286071,0.004 -3.793721,-0.69848 -3.753261,-2.10478 l -0.02635,-0.009 h 0.02635 v -8.58914 z m 37.608557,0 v 12.42611 h 1.606619 v -12.42611 z m -20.398755,0.0207 c -1.29349,-0.014 -3.323048,0.72079 -3.387908,2.49236 -0.0173,2.94559 5.550583,4.61455 5.546432,6.58978 0.02029,0.89313 -0.933845,1.9975 -2.520776,2.04742 -1.55789,0.0233 -2.850547,-0.89109 -2.854605,-1.99265 h -1.263489 c -0.005,2.29459 2.277793,3.26853 4.108791,3.26854 2.540953,0 3.870373,-1.93453 3.893304,-3.2334 0.0231,-3.29158 -5.566703,-4.81783 -5.603792,-6.63112 0.01191,-0.73685 1.000027,-1.30426 1.956988,-1.29552 1.186449,-0.0291 2.438765,0.47606 2.594154,1.23455 l 1.10226,0.0248 c 0.007,-0.82749 -0.984869,-2.54402 -3.571359,-2.50476 z"
         id="path894" />
    </g>
  </g>
</svg>
