<?xml version="1.0" encoding="UTF-8" standalone="no"?>
<!-- Created with Inkscape (http://www.inkscape.org/) -->

<svg
   width="60"
   height="60"
   viewBox="0 0 15.875 15.875001"
   version="1.1"
   id="svg8"
   inkscape:version="1.1 (c68e22c387, 2021-05-23)"
   sodipodi:docname="60x60.svg"
   inkscape:export-filename="C:\Users\Windows 10\Desktop\60x60.png"
   inkscape:export-xdpi="96"
   inkscape:export-ydpi="96"
   xmlns:inkscape="http://www.inkscape.org/namespaces/inkscape"
   xmlns:sodipodi="http://sodipodi.sourceforge.net/DTD/sodipodi-0.dtd"
   xmlns="http://www.w3.org/2000/svg"
   xmlns:svg="http://www.w3.org/2000/svg"
   xmlns:rdf="http://www.w3.org/1999/02/22-rdf-syntax-ns#"
   xmlns:cc="http://creativecommons.org/ns#"
   xmlns:dc="http://purl.org/dc/elements/1.1/">
  <defs
     id="defs2" />
  <sodipodi:namedview
     id="base"
     pagecolor="#ffffff"
     bordercolor="#666666"
     borderopacity="1.0"
     inkscape:pageopacity="0.0"
     inkscape:pageshadow="2"
     inkscape:zoom="3.959798"
     inkscape:cx="35.986684"
     inkscape:cy="50.886434"
     inkscape:document-units="mm"
     inkscape:current-layer="layer2"
     showgrid="false"
     inkscape:window-width="1366"
     inkscape:window-height="705"
     inkscape:window-x="-8"
     inkscape:window-y="-8"
     inkscape:window-maximized="1"
     showguides="true"
     inkscape:guide-bbox="true"
     units="px"
     inkscape:pagecheckerboard="0" />
  <metadata
     id="metadata5">
    <rdf:RDF>
      <cc:Work
         rdf:about="">
        <dc:format>image/svg+xml</dc:format>
        <dc:type
           rdf:resource="http://purl.org/dc/dcmitype/StillImage" />
      </cc:Work>
    </rdf:RDF>
  </metadata>
  <g
     inkscape:groupmode="layer"
     id="layer2"
     inkscape:label="draw"
     transform="translate(0,-175.29163)">
    <g
       id="g946"
       transform="matrix(0.09942881,0,0,0.09942881,-2.7825836,169.81351)">
      <circle
         r="22.91836"
         cy="112.24993"
         cx="101.89651"
         id="path861"
         style="opacity:1;fill:#ff2900;fill-opacity:1;stroke:none;stroke-width:0.0995437;stroke-linecap:round;stroke-linejoin:round;stroke-miterlimit:4;stroke-dasharray:none;stroke-dashoffset:0;stroke-opacity:1;paint-order:stroke markers fill" />
      <path
         inkscape:connector-curvature="0"
         id="path861-8"
         transform="scale(0.26458333)"
         d="m 389.66602,343.42773 a 81.328774,81.328774 0 0 0 -81.32813,81.33008 81.328774,81.328774 0 0 0 81.32813,81.32813 81.328774,81.328774 0 0 0 25.46679,-4.19727 81.331809,78.553897 0 0 1 -15.11328,1.42188 81.331809,78.553897 0 0 1 -81.33008,-78.55274 81.331809,78.553897 0 0 1 81.33008,-78.55469 81.331809,78.553897 0 0 1 15.26758,1.43555 81.328774,81.328774 0 0 0 -25.62109,-4.21094 z"
         style="opacity:1;fill:#f9f9f9;fill-opacity:1;stroke:none;stroke-width:0.353244;stroke-linecap:round;stroke-linejoin:round;stroke-miterlimit:4;stroke-dasharray:none;stroke-dashoffset:0;stroke-opacity:1;paint-order:stroke markers fill" />
    </g>
    <path
       inkscape:connector-curvature="0"
       style="fill:#333333;stroke:none;stroke-width:0.0263072px;stroke-linecap:butt;stroke-linejoin:miter;stroke-opacity:1"
       d="m 7.7730303,177.33193 c -0.00453,0.0293 -0.013427,0.0571 -1.579e-4,0.0924 l -0.00205,0.91957 c -0.00388,0.0153 -0.00787,0.0432 -1.052e-4,0.0528 l 0.1727439,-0.0224 c 0.0031,-0.0135 0.00599,-0.0271 -1.052e-4,-0.0422 l -0.00128,-0.85498 c 0.006,-0.0111 0.00277,-0.0221 -4.104e-4,-0.0332 -0.056471,-0.0365 -0.1685821,-0.11206 -0.1685821,-0.11206 z m 1.1687183,0.53518 c -0.011189,0.003 -0.020328,0.008 -0.026821,0.0147 l -0.2391283,0.13148 c -0.024339,0.004 -0.03941,0.0217 -0.03941,0.0217 l 0.1244968,0.10687 c 0,0 0.02326,-0.006 0.031291,-0.0245 l 0.20013,-0.15779 c 0.00848,-0.002 0.01763,-0.008 0.022248,-0.0162 -0.02682,-0.0246 -0.055004,-0.0487 -0.072807,-0.0763 z m -0.4568823,0.25367 c -0.012105,0.008 -0.02145,0.0181 -0.025742,0.0337 l -0.1714594,0.22387 c -0.01637,0.0106 -0.02204,0.0248 -0.029441,0.0384 l 0.1526536,0.0716 c 0,0 0.02675,-0.0152 0.030624,-0.0418 l 0.1640601,-0.22397 c 0.017179,-0.012 0.01944,-0.0173 0.02379,-0.0325 z m -1.0114402,0.13971 c -0.038201,0.14616 0.1046212,0.25912 0.205936,0.3405 0.1013151,0.0814 0.16776,0.01 0.16776,0.01 0,0 0.044856,-0.0847 -0.02158,-0.0997 -0.066435,-0.0149 -0.3521157,-0.25079 -0.3521157,-0.25079 z m 0.6403649,0.39466 c -0.016172,0.002 -0.04062,0.0156 -0.048042,0.0551 l -0.4922324,0.56494 c -0.023347,0.007 -0.042017,0.0207 -0.049326,0.0493 0,0 0.039946,0.12098 0.1832255,0.15034 0,0 0.035159,-0.0122 0.039923,-0.0493 l 0.4754823,-0.66857 c 0.036952,-0.0187 0.035355,-0.0495 0.035967,-0.0749 -0.061663,-0.009 -0.1031782,-0.018 -0.1449977,-0.027 z m -0.7715413,0.91052 c -0.00212,-3.2e-4 -0.00416,-3.1e-4 -0.00611,6e-5 -0.010423,0.002 -0.018644,0.0143 -0.025691,0.043 l -0.039923,0.16674 -0.4862209,0.69292 -0.06808,0.0259 c -0.032885,0.0407 -0.034479,0.0877 -0.00473,0.14094 0,0 0.1104108,0.0118 0.1338995,0.0493 0.023489,0.0376 0.049326,0.10335 0.08221,0.1151 0.032884,0.0117 0.1620714,0.0422 0.1973041,0.002 0.035233,-0.0399 0.014064,-0.33586 0.044599,-0.37344 0.030536,-0.0376 0.4298558,-0.57079 0.4298558,-0.57079 0,0 0.1150791,-0.0258 0.1127304,-0.0728 -0.00235,-0.047 -0.063404,-0.0963 -0.1949404,-0.11977 -0.092487,-0.0165 -0.1431623,-0.0946 -0.1749019,-0.0995 z m 1.3598052,0.1004 c -0.043075,-5.8e-4 -0.082806,0.0471 -0.1307652,0.0859 -0.069757,0.0565 -0.1561478,0.1395 -0.1561478,0.1395 0.1054206,0.0585 0.4193714,-0.10752 0.3488275,-0.18934 -0.022045,-0.0256 -0.042335,-0.0358 -0.061915,-0.0361 z m -0.1772138,0.3514 c -0.028187,0 -0.9184184,0.2983 -0.9724421,0.31944 -0.054024,0.0211 -0.1573589,0.0353 -0.2113823,0.0353 -0.054024,0 -0.070495,0.007 -0.070495,0.007 -0.046977,0.0376 0.018771,0.11276 0.014078,0.16679 -0.0047,0.054 0.070496,0.0469 0.1033792,0.0352 0.032884,-0.0117 0.044628,-0.0798 0.098652,-0.0963 0.054025,-0.0165 0.6247965,-0.20905 0.7398903,-0.24663 0.1150938,-0.0376 0.3523438,-0.0728 0.3805299,-0.0822 0.028186,-0.009 -0.02118,-0.0611 -0.01413,-0.0846 0.00705,-0.0235 -0.039894,-0.054 -0.06808,-0.054 z m -0.093719,0.27222 c -0.1843754,6.6e-4 -0.3938973,0.0819 -0.4719372,0.11499 -0.045156,0.005 -0.092705,0.0117 -0.1452547,0.0216 0,0 0.2073608,0.10115 0.28234,0.14947 0.074979,0.0483 0.2225396,0.14949 0.3188721,0.0498 0.048768,-0.0632 0.032485,-0.14799 -0.08257,-0.19515 0.3529878,-0.006 0.330844,-0.0677 0.330844,-0.0677 -0.058134,-0.0542 -0.1419011,-0.0734 -0.2322945,-0.0731 z m -1.8008622,0.43885 c -0.019258,9.8e-4 -0.040629,0.006 -0.064381,0.0147 -0.1291871,0.0493 -0.042294,0.39457 -0.1503415,0.64355 -0.03993,0.14563 -0.2724819,0.83151 -0.3476459,0.97948 -0.075163,0.14798 -0.2278025,0.18087 -0.2489422,0.26308 -0.02114,0.0822 0.1339437,0.0879 0.1903164,0.22176 0.056372,0.13388 0.144797,0.22813 0.2230459,0.20573 0.066842,-0.0241 0.068786,-0.67898 0.16627,-0.86074 0.067318,-0.12552 0.4632387,-1.00425 0.477332,-1.03009 0.014093,-0.0258 0.084559,-0.0798 0.098652,-0.13621 0.014093,-0.0564 -0.058721,-0.0728 -0.098652,-0.0728 -0.039931,0 -0.096318,-0.10335 -0.1338998,-0.16442 -0.023488,-0.0382 -0.053426,-0.0603 -0.093205,-0.0638 -0.00597,-5.2e-4 -0.01213,-6.3e-4 -0.018549,-3e-4 z m 4.1870591,0.12043 -1.6170193,1.27981 H 7.4584229 c 0,0.99883 0.606042,1.08245 0.606042,1.08245 0,0 0.7563184,0.0148 1.2965548,0.0148 0.5402375,0 0.6482773,-1.09725 0.6482773,-1.09725 H 9.7666235 l 1.1869075,-0.48119 -0.06104,-0.13153 -1.3746546,0.61272 H 9.3754579 l 1.5357861,-1.15767 z"
       id="path829" />
    <path
       inkscape:connector-curvature="0"
       style="fill:#333333;fill-opacity:1;stroke:none;stroke-width:0.00923383;stroke-linecap:round;stroke-linejoin:round;stroke-miterlimit:4;stroke-dasharray:none;stroke-dashoffset:0;stroke-opacity:1;paint-order:stroke markers fill"
       d="m 8.5978539,183.47903 a 0.35875297,0.35875297 0 0 0 -0.3587441,0.35874 0.35875297,0.35875297 0 0 0 0.3587441,0.35874 0.35875297,0.35875297 0 0 0 0.358744,-0.35874 0.35875297,0.35875297 0 0 0 -0.358744,-0.35874 z m -7.2747144,0.20593 v 0.16941 H 1.555691 v 2.90658 H 1.3331076 v 0.186 h 1.22904 v -0.186 H 2.2864869 v -1.20915 c -4.077e-4,-0.0675 0.2424844,-0.0719 0.3853081,0.15281 0.3615631,0.41986 0.2170423,1.30657 0.7507317,1.32209 0.2797888,0.002 0.6147287,-0.13829 0.8636678,-0.33886 l -0.066436,-0.0996 c -0.1489701,0.0926 -0.3592004,0.14418 -0.4617633,0.0664 -0.2009618,-0.20801 -0.1933036,-0.55513 -0.3487763,-0.84374 -0.2531698,-0.49711 -0.6093328,-0.45113 -0.9566677,-0.45174 l 1.319214,-1.5048 H 4.040849 v -0.15625 H 3.9135263 l 4.63e-4,-5.2e-4 -0.1386266,5.2e-4 H 3.4418983 v 10e-4 l -0.1655505,6.2e-4 -0.9766036,1.56615 v -1.41175 h 0.3089555 v -0.16941 z m 11.2745925,0.006 v 0.42281 H 13.9413 v -0.42281 z m -2.095175,0.65768 c -0.155322,-10e-4 -0.304723,0.0923 -0.319437,0.32884 0.0045,0.11831 0.05147,0.21279 0.126809,0.29128 0.03435,0.18908 -0.306158,0.63435 -0.5073385,0.93015 l 0.1174574,0.12681 c 0.2430671,-0.18062 0.4997841,-0.75061 0.6634351,-0.66297 0.10554,0.0418 0.174699,0.351 0.178396,0.65141 -0.01247,0.40815 -0.133319,0.69617 -0.414339,0.72093 -0.299744,-0.003 -0.3707077,-0.075 -0.5120655,-0.15974 l -0.084574,0.0846 c 0.214141,0.30518 0.6739455,0.3674 0.8549845,0.3664 0.605609,-4e-4 0.925327,-0.45788 0.920752,-0.89727 -0.0088,-0.47732 -0.565795,-0.98106 -0.811207,-1.16163 0.08507,-0.0701 0.138243,-0.15597 0.144176,-0.27586 -0.0044,-0.21324 -0.182123,-0.34467 -0.357049,-0.34292 z m -2.0975371,0.12917 c -0.2327956,0.004 -0.510091,0.21678 -0.6670829,0.39934 l 0.068131,0.0728 c 0.073696,-0.0754 0.349586,-0.24916 0.4180895,-0.2067 v 1.63952 c 0.00904,0.41048 0.2715425,0.62717 0.5120656,0.6248 0.28724,0.005 0.5769158,-0.18557 0.798619,-0.35232 l -0.093976,-0.0893 c -0.3634641,0.19612 -0.5698404,0.15008 -0.5731068,-0.1973 v -1.73345 c -0.00475,-0.10813 -0.2629942,-0.15459 -0.4627396,-0.15738 z m 4.8832761,0.003 a 1.2635517,1.2635516 0 0 0 -1.263568,1.26351 1.2635517,1.2635516 0 0 0 1.263568,1.26357 1.2635517,1.2635516 0 0 0 1.263568,-1.26357 1.2635517,1.2635516 0 0 0 -1.263568,-1.26351 z m -7.5870098,0.008 c -0.017588,-4.8e-4 -0.035312,-4.3e-4 -0.05318,2.1e-4 -0.6863301,0.01 -1.1191624,0.79972 -1.1161039,1.29552 0.00156,0.53437 0.377624,1.2449 1.0164756,1.24898 0.3267053,0.0128 0.6636744,-0.18403 0.8187606,-0.4202 0.1096453,0.0314 0.2159475,0.42378 0.5116034,0.41851 0.3448397,-0.007 0.6062334,-0.22887 0.7557157,-0.39693 l -0.086372,-0.0332 c -0.1873694,0.10277 -0.5702929,0.28088 -0.577988,-0.18605 V 184.5752 H 6.3589664 v 0.30829 c -0.1626911,-0.25545 -0.3938581,-0.38764 -0.6576802,-0.39487 z m 7.5870098,0.225 a 0.64513858,1.0303512 0 0 1 0.645143,1.03034 0.64513858,1.0303512 0 0 1 -0.645143,1.03035 0.64513858,1.0303512 0 0 1 -0.645143,-1.03035 0.64513858,1.0303512 0 0 1 0.645143,-1.03034 z m -7.5069578,0.054 c 0.326508,0 0.5911933,0.43821 0.5911927,0.97876 6e-7,0.54055 -0.2646847,0.97875 -0.5911927,0.97876 -0.3265082,-1e-5 -0.5911935,-0.43821 -0.591193,-0.97876 -5e-7,-0.54055 0.2646848,-0.97876 0.591193,-0.97876 z m 0.2920511,2.7176 c -0.1731378,-0.002 -0.4448092,0.0956 -0.4534911,0.33044 -0.00232,0.39051 0.7429617,0.61176 0.7424079,0.87363 0.00271,0.11841 -0.1355602,0.26139 -0.3600799,0.26801 -0.2085304,0.003 -0.3589206,-0.11472 -0.3594633,-0.26076 H 5.473667 c -7.156e-4,0.3042 0.2822416,0.42985 0.5273262,0.42985 0.3465272,0 0.5406476,-0.25293 0.5437163,-0.42513 0.00308,-0.43638 -0.7450993,-0.63878 -0.7500635,-0.87918 0.00159,-0.0977 0.1339008,-0.17293 0.261993,-0.17177 0.1588108,-0.004 0.3263843,0.0631 0.3471833,0.1637 l 0.1475156,0.003 c 8.76e-4,-0.1097 -0.1317381,-0.33728 -0.4779486,-0.33208 z m 2.9869472,0.006 v 1.6348 h 0.1691472 v -0.88694 c 0.00253,-0.003 0.2136479,-0.25461 0.4671584,-0.24889 0.2551573,0.006 0.3468749,0.19077 0.3468749,0.27936 l 0.0033,0.85647 h 0.169147 v -0.88175 c -0.0023,-0.18545 -0.239053,-0.41198 -0.5193619,-0.4091 -0.282657,5e-4 -0.4623284,0.22603 -0.4623284,0.22603 -0.00198,-0.19716 -0.00407,-0.37277 -0.00483,-0.56998 z m 1.4657025,0.005 v 0.16915 h 0.169147 v -0.16915 z m -3.739375,0.39461 v 0.85401 h 0.0018 l -0.0018,8.7e-4 c -0.00158,0.22846 0.2184128,0.38063 0.5389382,0.38063 0.3314588,0 0.5532267,-0.15623 0.5509098,-0.35782 v -0.87769 H 7.7074164 v 0.87769 c -0.013783,0.15592 -0.2206112,0.17788 -0.3784745,0.18647 -0.1278725,4.3e-4 -0.3772051,-0.0695 -0.3731822,-0.20928 l -0.00262,-8.7e-4 h 0.00262 v -0.85401 z m 3.739375,0 v 1.23551 h 0.159744 v -1.23551 z m -2.0282246,0.002 c -0.1286102,-0.001 -0.3304067,0.0717 -0.3368557,0.24781 -0.00172,0.29288 0.5518879,0.45882 0.5514752,0.65522 0.00202,0.0888 -0.092851,0.19861 -0.2506377,0.20357 -0.1548993,0.002 -0.2834266,-0.0886 -0.2838301,-0.19813 H 8.0523389 c -4.972e-4,0.22815 0.2264782,0.32499 0.4085323,0.32499 0.2526439,0 0.3848266,-0.19235 0.3871066,-0.32149 0.0023,-0.32728 -0.5534908,-0.47903 -0.5571785,-0.65933 0.00118,-0.0733 0.099431,-0.12968 0.194581,-0.12881 0.1179673,-0.003 0.2424836,0.0473 0.2579338,0.12275 l 0.1095963,0.002 c 6.972e-4,-0.0823 -0.097924,-0.25295 -0.355096,-0.24905 z"
       id="path894" />
  </g>
</svg>
